:SAMPLES-PER-SECOND 30
:FULLY-SPECIFIED
:DEGREES
1017
root  65.8042 39.4252 3.55936 -178.78 -65.8692 172.888
RightUpLeg  -5.19995 -4.10766 -14.1498
RightLeg  16.1099 11.527 2.60281
RightFoot  -7.04925 -0.410168 9.65375
RightToes  0.00048216 0.542163 -0.142577
Spine  6.53488 0.822201 3.73308
Spine1  8.10022 2.85285 -6.49197
HEad  -19.6157 3.7777 -7.79603
LeftShoulder1  7.62816 -11.2764 -44.9647
LeftArm  -13.8246 16.1365 -25.4642
LeftForeArm  28.6086 -22.7708 -3.43571
LeftHand  -0.25398 0.0180481 5.50724
RightShoulder  4.86333 8.21647 35.5239
RightArm  0.681574 -16.544 40.1072
RightForeArm  17.6349 14.3892 6.37236
RightHand  -0.716817 1.73616 -11.8589
LeftUpLeg  -1.98401 -20.4812 -2.98284
LeftLeg  19.92 -7.69204 -2.77877
LeftFoot  -12.655 0.0760396 -0.0545281
LeftToes  1.06247e-005 4.65855e-005 -8.18501e-006
1018
root  66.0887 39.3996 2.84612 179.659 -70.3925 175.55
RightUpLeg  -4.80244 -8.7332 -12.3964
RightLeg  16.5033 11.5205 3.1488
RightFoot  -7.69777 -0.355264 9.50081
RightToes  0.00048216 0.542163 -0.142577
Spine  5.72088 0.15544 4.92246
Spine1  8.0984 1.85455 -4.8883
HEad  -19.3147 7.35757 -9.96287
LeftShoulder1  7.41921 -11.0406 -44.4173
LeftArm  -14.3512 16.8125 -24.696
LeftForeArm  24.6866 -20.121 -3.42587
LeftHand  -0.25398 0.0180481 5.50724
RightShoulder  4.88046 8.2657 35.4975
RightArm  -1.10517 -17.6473 39.4528
RightForeArm  15.1869 17.1838 5.23593
RightHand  -0.762245 2.13691 -11.9503
LeftUpLeg  -4.95638 -20.7423 -0.358216
LeftLeg  22.7753 -5.25849 -2.07467
LeftFoot  -12.1276 0.0626896 -1.58112
LeftToes  1.06247e-005 4.65855e-005 -8.18501e-006
1019
root  66.3899 39.4261 2.19701 178.228 -73.8889 177.689
RightUpLeg  -4.39469 -10.9437 -11.117
RightLeg  16.4864 10.0382 3.39992
RightFoot  -8.14306 -0.314346 9.24881
RightToes  0.00048216 0.542163 -0.142577
Spine  5.58632 -0.141773 4.97261
Spine1  7.86307 1.0889 -3.02593
HEad  -20.2861 9.80191 -10.7303
LeftShoulder1  7.15686 -10.7842 -43.5735
LeftArm  -13.6991 17.2497 -23.7714
LeftForeArm  23.2366 -17.8884 -3.54779
LeftHand  -0.25398 0.0180481 5.50724
RightShoulder  4.77787 8.09298 35.234
RightArm  -4.49661 -18.1478 38.0245
RightForeArm  13.6222 20.2705 4.33361
RightHand  -0.908417 3.10255 -12.6599
LeftUpLeg  -7.50635 -16.8129 1.09479
LeftLeg  25.4337 -0.228593 0.21994
LeftFoot  -10.8349 0.0722498 -1.92809
LeftToes  1.06247e-005 4.65855e-005 -8.18501e-006
1020
root  66.6802 39.5327 1.623 177.602 -76.0962 178.409
RightUpLeg  -3.57368 -12.11 -10.4249
RightLeg  15.7167 8.78486 3.59705
RightFoot  -8.2701 -0.289855 8.70189
RightToes  0.00048216 0.542163 -0.142577
Spine  6.18809 -0.0230423 4.26712
Spine1  7.42449 0.821174 -1.57044
HEad  -21.9801 11.3295 -10.5843
LeftShoulder1  6.88736 -10.6261 -42.3298
LeftArm  -13.2611 17.6171 -22.5174
LeftForeArm  25.2042 -15.9344 -3.60872
LeftHand  -0.25398 0.0180481 5.50724
RightShoulder  4.40221 7.48185 34.1137
RightArm  -9.818 -17.6199 36.509
RightForeArm  14.3277 21.8885 4.09744
RightHand  -1.09873 4.19267 -13.59
LeftUpLeg  -8.47993 -10.1095 0.998029
LeftLeg  26.791 4.974 3.04271
LeftFoot  -10.2236 0.0750651 -1.35266
LeftToes  1.06247e-005 4.65855e-005 -8.18501e-006
1021
root  66.9179 39.6714 1.12553 178.576 -77.682 177.432
RightUpLeg  -2.6853 -12.7863 -10.2571
RightLeg  14.4349 7.83765 3.93238
RightFoot  -7.98654 -0.297834 8.29725
RightToes  0.00048216 0.542163 -0.142577
Spine  6.58414 0.226069 3.15559
Spine1  7.08145 0.765835 -0.556313
HEad  -20.9909 9.50306 -9.55352
LeftShoulder1  6.55393 -10.4825 -40.5664
LeftArm  -13.7958 18.0292 -20.9805
LeftForeArm  27.2758 -13.9907 -3.50696
LeftHand  -0.25398 0.0180481 5.50724
RightShoulder  3.83069 6.53081 32.2234
RightArm  -14.8643 -16.2415 34.6758
RightForeArm  14.3793 21.7025 4.04964
RightHand  -1.29829 4.97195 -14.8334
LeftUpLeg  -8.32154 -2.59803 -0.0303636
LeftLeg  26.3353 6.67689 3.92203
LeftFoot  -10.7049 0.0719328 -1.497
LeftToes  1.06247e-005 4.65855e-005 -8.18501e-006
1022
root  67.0791 39.7765 0.712508 -179.097 -79.1618 175.525
RightUpLeg  -2.38057 -12.9792 -10.1958
RightLeg  13.4098 6.5639 4.17039
RightFoot  -7.7527 -0.30818 8.13654
RightToes  0.00048216 0.542163 -0.142577
Spine  6.11866 0.341976 2.38838
Spine1  6.88985 0.729602 -0.188587
HEad  -14.2865 1.8347 -6.79712
LeftShoulder1  6.10986 -10.2128 -38.3652
LeftArm  -14.9412 18.3616 -19.0862
LeftForeArm  26.1495 -11.9222 -3.2197
LeftHand  -0.25398 0.0180481 5.50724
RightShoulder  3.25272 5.53375 30.023
RightArm  -18.9724 -14.6941 31.9492
RightForeArm  12.4793 20.3488 3.97839
RightHand  -1.47891 5.27531 -16.3722
LeftUpLeg  -7.80805 4.24453 -1.52778
LeftLeg  24.2899 4.95188 2.78282
LeftFoot  -10.9347 0.0745705 -2.26173
LeftToes  1.06247e-005 4.65855e-005 -8.18501e-006
1023
root  67.1744 39.8551 0.39578 -176.795 -80.48 173.958
RightUpLeg  -2.498 -12.8872 -9.94584
RightLeg  12.6016 5.06266 4.21518
RightFoot  -7.72505 -0.301336 7.86571
RightToes  0.00048216 0.542163 -0.142577
Spine  5.26388 0.362921 2.5289
Spine1  6.34123 0.813496 -0.664965
HEad  -13.5221 3.10086 -6.24428
LeftShoulder1  5.61523 -9.863 -35.9166
LeftArm  -16.0103 18.6606 -16.7534
LeftForeArm  22.815 -10.1435 -2.75449
LeftHand  -0.25398 0.0180481 5.50724
RightShoulder  2.74907 4.67336 27.5915
RightArm  -22.1566 -13.6671 28.2161
RightForeArm  10.0668 18.4408 3.81585
RightHand  -1.58635 5.31759 -17.45
LeftUpLeg  -6.99481 10.0979 -3.22308
LeftLeg  20.9552 3.53417 1.89596
LeftFoot  -10.0875 0.0710595 -1.21575
LeftToes  1.06247e-005 4.65855e-005 -8.18501e-006
1024
root  67.2294 39.95 0.161324 -175.377 -81.4993 173.224
RightUpLeg  -2.43701 -12.6239 -9.58414
RightLeg  11.4192 3.67854 4.22675
RightFoot  -7.47634 -0.300707 7.39649
RightToes  0.00048216 0.542163 -0.142577
Spine  4.70707 0.499183 2.99466
Spine1  5.18239 1.03483 -1.3472
HEad  -12.0586 3.18101 -5.59783
LeftShoulder1  5.1187 -9.52438 -33.2379
LeftArm  -16.813 19.0706 -14.2924
LeftForeArm  20.3901 -9.25534 -2.23448
LeftHand  -0.25398 0.0180481 5.50724
RightShoulder  2.27616 3.87823 24.6864
RightArm  -24.1209 -13.0621 23.7799
RightForeArm  8.6473 15.9824 3.43827
RightHand  -1.61248 5.49321 -17.4558
LeftUpLeg  -5.57342 14.0681 -4.39797
LeftLeg  16.5006 5.68661 1.66228
LeftFoot  -9.03629 0.00741984 2.32081
LeftToes  1.06247e-005 4.65855e-005 -8.18501e-006
